<svg id="Layer_1" data-name="Layer 1" xmlns="http://www.w3.org/2000/svg" viewBox="0 0 1000 1000"><defs><style>.cls-1{fill:#231f20;}</style></defs><title>Black_Icon</title><path class="cls-1" d="M812.22,419.05C812.22,239.7,666.31,93.8,487,93.8S161.72,239.7,161.72,419.05,307.62,744.31,487,744.31a325,325,0,0,0,82.27-10.55V838.11a9.12,9.12,0,0,0,8.94,8.95,8.47,8.47,0,0,0,6.52-2.74,9,9,0,0,0,2.43-6.21V728.5C717.61,686.17,812.22,563.46,812.22,419.05ZM594,393.25a62.36,62.36,0,0,1,23.22-25.93,63.42,63.42,0,0,1,33.85-9.25,61.07,61.07,0,0,1,33.3,9.41,66.44,66.44,0,0,1,23.43,26.14c5.73,11.12,8.64,23.84,8.64,37.81s-2.91,26.74-8.64,38a66.19,66.19,0,0,1-23.42,26.31h0a61,61,0,0,1-33.3,9.41,62.4,62.4,0,0,1-33.83-9.42A63.44,63.44,0,0,1,594,469.61c-5.51-11.12-8.3-24-8.3-38.18S588.53,404.36,594,393.25Zm-6.91,94.06a81.61,81.61,0,0,0,25.44,24.31,75.12,75.12,0,0,0,39.24,10.71,77.4,77.4,0,0,0,42-12,83.86,83.86,0,0,0,29.7-32.71c7.18-13.77,10.82-29.33,10.82-46.24,0-17.15-3.58-32.76-10.65-46.41a81.56,81.56,0,0,0-29.53-32.38,78.87,78.87,0,0,0-42.38-11.76c-14.63,0-28,3.29-39.86,9.79a69,69,0,0,0-24.82,23.68V349.82a9,9,0,0,0-2.43-6.21,9.14,9.14,0,0,0-13,0,9,9,0,0,0-2.43,6.21V720.3a312,312,0,0,1-82.27,11c-172.18,0-312.26-140.08-312.26-312.26S314.79,106.79,487,106.79,799.23,246.87,799.23,419.05c0,137.16-88.89,254-212.1,295.79Z"/><path class="cls-1" d="M466.33,340.87c-13.25,0-26.95,3.82-40.73,11.36-12.17,6.66-21,14.74-26.42,24.06-4.8-10.88-11.85-19.41-21-25.37a63.25,63.25,0,0,0-35.12-10.05,68.72,68.72,0,0,0-34.86,9.65A83.76,83.76,0,0,0,285,370.2v-41a9,9,0,0,0-2.44-6.21,8.49,8.49,0,0,0-6.51-2.73,9.12,9.12,0,0,0-8.95,8.94V511.29a9,9,0,0,0,2.43,6.21,8.47,8.47,0,0,0,6.52,2.74,9.14,9.14,0,0,0,9-8.95V409.89a43.64,43.64,0,0,1,8.48-25.58,62,62,0,0,1,22-19.18,58.86,58.86,0,0,1,27.55-7.06c14.78,0,25.93,4.76,33.14,14.15,7.33,9.55,11.05,22.23,11.05,37.67v101.4a8.92,8.92,0,0,0,2.43,6.21,9.1,9.1,0,0,0,13,0,8.92,8.92,0,0,0,2.44-6.21V411.63a44.9,44.9,0,0,1,8.65-26.45,64.84,64.84,0,0,1,22.75-19.7,60.26,60.26,0,0,1,28.41-7.41c15.47,0,27.15,4.94,34.7,14.68s11.57,23,11.57,38.88v99.66a8.92,8.92,0,0,0,2.43,6.21,9.1,9.1,0,0,0,13,0,8.92,8.92,0,0,0,2.44-6.21V410.24c0-20.29-5.36-37.08-15.92-49.89S486.76,340.87,466.33,340.87Z"/></svg>